<?xml version="1.0" encoding="utf-8"?>
<svg version="1.1" xmlns:xlink="http://www.w3.org/1999/xlink" width="12px" height="12px" viewBox="465 404  12 12" xmlns="http://www.w3.org/2000/svg">
  <path d="M 471 404  C 474.36 404  477 406.64  477 410  C 477 413.36  474.36 416  471 416  C 467.64 416  465 413.36  465 410  C 465 406.64  467.64 404  471 404  Z " fill-rule="nonzero" fill="#ffffff" stroke="none" />
  <path d="M 471 404.5  C 474.08 404.5  476.5 406.92  476.5 410  C 476.5 413.08  474.08 415.5  471 415.5  C 467.92 415.5  465.5 413.08  465.5 410  C 465.5 406.92  467.92 404.5  471 404.5  Z " stroke-width="1" stroke="#797979" fill="none" />
  <path d="M 471 413  C 469.32 413  468 411.68  468 410  C 468 408.32  469.32 407  471 407  C 472.68 407  474 408.32  474 410  C 474 411.68  472.68 413  471 413  " fill-rule="nonzero" fill="#797979" stroke="none" />
</svg>