<?xml version="1.0" encoding="utf-8"?>
<svg version="1.1" xmlns:xlink="http://www.w3.org/1999/xlink" width="12px" height="12px" viewBox="557 404  12 12" xmlns="http://www.w3.org/2000/svg">
  <path d="M 563 404  C 566.36 404  569 406.64  569 410  C 569 413.36  566.36 416  563 416  C 559.64 416  557 413.36  557 410  C 557 406.64  559.64 404  563 404  Z " fill-rule="nonzero" fill="#ffffff" stroke="none" />
  <path d="M 563 404.5  C 566.08 404.5  568.5 406.92  568.5 410  C 568.5 413.08  566.08 415.5  563 415.5  C 559.92 415.5  557.5 413.08  557.5 410  C 557.5 406.92  559.92 404.5  563 404.5  Z " stroke-width="1" stroke="#797979" fill="none" />
  <path d="M 563 413  C 561.32 413  560 411.68  560 410  C 560 408.32  561.32 407  563 407  C 564.68 407  566 408.32  566 410  C 566 411.68  564.68 413  563 413  " fill-rule="nonzero" fill="#797979" stroke="none" />
</svg>